<svg width="97" height="25" viewBox="0 0 97 25" fill="none" xmlns="http://www.w3.org/2000/svg">
<mask id="mask0_5_16149" style="mask-type:alpha" maskUnits="userSpaceOnUse" x="0" y="0" width="18" height="18">
<path fill-rule="evenodd" clip-rule="evenodd" d="M0 0H17.5438V17.3505H0V0Z" fill="white"/>
</mask>
<g mask="url(#mask0_5_16149)">
<path fill-rule="evenodd" clip-rule="evenodd" d="M17.5441 15.7685V1.58185C17.5441 1.39988 17.5123 1.22546 17.4547 1.06267C17.2584 0.539413 16.761 0.115576 16.1978 0.0202268L16.1884 0.0184826C16.1861 0.0179012 16.1837 0.0179012 16.1814 0.0173198C16.1038 0.00627328 16.025 -0.00012207 15.9444 -0.00012207H1.59962C0.720151 -0.00012207 0 0.712087 0 1.58185V15.7685C0 15.9499 0.0317455 16.1243 0.0899455 16.2877C0.285709 16.8109 0.783054 17.2348 1.34624 17.3301C1.34977 17.3307 1.35271 17.3313 1.35565 17.3313C1.358 17.3319 1.36035 17.3319 1.36329 17.3324C1.4403 17.3441 1.51967 17.3505 1.59962 17.3505H7.72179L1.88533 9.91907H4.98991L10.827 17.3505H12.6941L6.85702 9.91907H10.506C11.1462 9.91907 11.6124 9.7679 11.9328 9.45453C12.2502 9.1429 12.4042 8.68651 12.4042 8.06267C12.4042 7.15395 12.1309 6.22488 10.0992 6.22488H3.95407L2.037 3.7836H10.5877C11.9369 3.7836 13.0333 4.17837 13.8457 4.95802C14.6623 5.7429 15.0762 6.80046 15.0762 8.10279C15.0762 9.29058 14.704 10.2737 13.9709 11.0226C13.4418 11.5633 12.7417 11.9446 11.881 12.1633L15.7987 17.3505H15.9444C16.8239 17.3505 17.5441 16.6383 17.5441 15.7685Z" fill="#F17D21"/>
</g>
<mask id="mask1_5_16149" style="mask-type:alpha" maskUnits="userSpaceOnUse" x="0" y="0" width="97" height="25">
<path fill-rule="evenodd" clip-rule="evenodd" d="M0 25H96.8495V0H0V25Z" fill="white"/>
</mask>
<g mask="url(#mask1_5_16149)">
<path fill-rule="evenodd" clip-rule="evenodd" d="M32.4033 17.35H34.8718V3.25464H32.4033V17.35Z" fill="white"/>
<path fill-rule="evenodd" clip-rule="evenodd" d="M36.3662 7.75382C36.3662 6.94045 36.539 6.23405 36.8865 5.6358C37.2333 5.03754 37.6966 4.53928 38.2774 4.13987C38.8582 3.74219 39.5237 3.44626 40.2738 3.25498C41.024 3.0637 41.8023 2.96777 42.6089 2.96777C43.2056 2.96777 43.807 3.02359 44.4119 3.13522C45.0168 3.24684 45.5936 3.43405 46.142 3.69684C46.6905 3.9608 47.1908 4.31196 47.6423 4.75033C48.0938 5.18928 48.473 5.7358 48.7793 6.38928L46.5536 7.39452C46.3919 7.02824 46.1697 6.71719 45.8881 6.46138C45.6053 6.20673 45.2867 5.99859 44.9322 5.83928C44.5771 5.67998 44.1979 5.5637 43.7946 5.49219C43.3914 5.4201 42.9963 5.38463 42.6089 5.38463C42.0927 5.38463 41.6048 5.43638 41.1451 5.53987C40.6854 5.64394 40.2862 5.79975 39.9476 6.00673C39.6089 6.21487 39.3379 6.46138 39.1369 6.74859C38.9347 7.03638 38.8341 7.37126 38.8341 7.75382V12.7317C38.8341 13.1782 38.9552 13.5532 39.1974 13.8561C39.4391 14.1596 39.7453 14.4067 40.1163 14.598C40.4878 14.7899 40.8946 14.9253 41.3385 15.005C41.7823 15.0846 42.2056 15.1247 42.6089 15.1247C43.3837 15.1247 44.1415 14.9771 44.8834 14.6817C45.6253 14.387 46.2061 13.88 46.6259 13.1625L48.804 14.1434C48.4653 14.7817 48.0656 15.3201 47.6059 15.7591C47.1461 16.1974 46.6459 16.5486 46.1056 16.812C45.5647 17.0747 44.9963 17.2625 44.3996 17.3742C43.8029 17.4852 43.2056 17.5416 42.6089 17.5416C41.7382 17.5416 40.9229 17.4375 40.1651 17.2306C39.4067 17.0236 38.7454 16.716 38.1804 16.3091C37.616 15.9027 37.1722 15.3992 36.85 14.8015C36.5267 14.2032 36.3662 13.5131 36.3662 12.7317V7.75382Z" fill="white"/>
<path fill-rule="evenodd" clip-rule="evenodd" d="M52.2394 12.6599C52.2394 13.0588 52.3399 13.4099 52.5422 13.7128C52.7432 14.0158 53.0178 14.271 53.3652 14.4785C53.7115 14.6855 54.1106 14.846 54.5627 14.957C55.0142 15.0692 55.4898 15.1245 55.9901 15.1245C56.4898 15.1245 56.9701 15.0692 57.4298 14.957C57.8895 14.846 58.2928 14.6855 58.6396 14.4785C58.9865 14.271 59.2651 14.0158 59.4744 13.7128C59.6843 13.4099 59.7895 13.0588 59.7895 12.6599V7.8018C59.7895 7.41866 59.6843 7.0797 59.4744 6.78494C59.2651 6.48959 58.9865 6.23843 58.6396 6.03087C58.2928 5.82331 57.8895 5.66808 57.4298 5.56401C56.9701 5.46052 56.4898 5.40819 55.9901 5.40819C55.4898 5.40819 55.0142 5.46052 54.5627 5.56401C54.1106 5.66808 53.7115 5.82331 53.3652 6.03087C53.0178 6.23843 52.7432 6.48959 52.5422 6.78494C52.3399 7.0797 52.2394 7.41866 52.2394 7.8018V12.6599ZM49.7715 12.6599V7.8018C49.7715 7.0204 49.9332 6.3297 50.2559 5.73145C50.5792 5.13319 51.0196 4.63087 51.5774 4.22389C52.1353 3.8175 52.7938 3.51052 53.5533 3.30238C54.3128 3.0954 55.1294 2.99133 56.0024 2.99133C56.8748 2.99133 57.6955 3.0954 58.4627 3.30238C59.2305 3.51052 59.893 3.8175 60.4509 4.22389C61.0088 4.63087 61.4491 5.13319 61.7724 5.73145C62.0958 6.3297 62.2574 7.0204 62.2574 7.8018V12.6599C62.2574 13.4419 62.0958 14.1355 61.7724 14.7419C61.4491 15.3483 61.0088 15.8588 60.4509 16.2733C59.893 16.6884 59.2305 17.0035 58.4627 17.2187C57.6955 17.4344 56.8748 17.5413 56.0024 17.5413C55.1294 17.5413 54.3128 17.4344 53.5533 17.2187C52.7938 17.0035 52.1353 16.6884 51.5774 16.2733C51.0196 15.8588 50.5792 15.3483 50.2559 14.7419C49.9332 14.1355 49.7715 13.4419 49.7715 12.6599Z" fill="white"/>
<path fill-rule="evenodd" clip-rule="evenodd" d="M94.3813 12.6117V11.5105H89.1233C88.6571 11.5105 88.2791 11.5669 87.9893 11.6791C87.7001 11.7908 87.4667 11.9216 87.2897 12.0733C87.1128 12.2256 86.9923 12.3844 86.9282 12.5518C86.8635 12.7198 86.8318 12.8594 86.8318 12.971C86.8318 13.3535 86.9323 13.6809 87.1328 13.9524C87.3344 14.2233 87.6078 14.4466 87.9529 14.6221C88.2985 14.7977 88.7012 14.9251 89.1592 15.0047C89.6177 15.0849 90.1039 15.1245 90.6189 15.1245C91.5031 15.1245 92.1944 15.0251 92.6929 14.8256C93.1915 14.6262 93.5653 14.3913 93.8146 14.1198C94.0639 13.8489 94.2208 13.5733 94.2849 13.2937C94.3496 13.0146 94.3813 12.7878 94.3813 12.6117ZM90.6553 2.99133C91.4937 2.99133 92.2879 3.08726 93.038 3.27854C93.7887 3.46982 94.4442 3.7611 95.0056 4.15238C95.5671 4.54308 96.0144 5.03436 96.3489 5.62389C96.6829 6.21459 96.8498 6.91633 96.8498 7.73029V12.6117C96.8498 13.4733 96.6999 14.2117 96.4007 14.8256C96.102 15.4396 95.6776 15.9501 95.1285 16.357C94.5783 16.764 93.9198 17.0628 93.1526 17.2541C92.3843 17.446 91.5401 17.5413 90.6189 17.5413C89.7459 17.5413 88.9293 17.4541 88.1698 17.2791C87.4103 17.1047 86.7477 16.8297 86.1816 16.4559C85.616 16.082 85.1716 15.6088 84.8483 15.0361C84.5249 14.4634 84.3633 13.7791 84.3633 12.9838C84.3633 12.3797 84.4803 11.8384 84.7142 11.3611C84.9482 10.8838 85.271 10.478 85.6825 10.1442C86.0934 9.81052 86.5902 9.5518 87.1704 9.36866C87.7512 9.18552 88.3961 9.09424 89.1063 9.09424H94.3813V7.7454C94.3813 7.36052 94.2843 7.02273 94.0909 6.73377C93.8975 6.44424 93.6312 6.20412 93.2926 6.01052C92.9539 5.8175 92.5583 5.66982 92.1068 5.56517C91.6547 5.46052 91.1709 5.40819 90.6553 5.40819C89.0416 5.40819 87.88 5.91924 87.1704 6.94017L85.0411 5.6954C85.6055 4.77098 86.3638 4.08901 87.3156 3.64947C88.2674 3.2111 89.3802 2.99133 90.6553 2.99133Z" fill="white"/>
<path fill-rule="evenodd" clip-rule="evenodd" d="M83.246 11.6902V7.8018C83.246 7.0204 83.1084 6.32622 82.8345 5.71924C82.5599 5.11343 82.1772 4.61052 81.6852 4.21226C81.1925 3.81343 80.6088 3.51052 79.9309 3.30238C79.2531 3.0954 78.5189 2.99133 77.7287 2.99133C76.8252 2.99133 75.9904 3.0954 75.2244 3.30238C74.4578 3.51052 73.8405 3.8611 73.3731 4.35587C72.9052 3.8611 72.3044 3.51052 71.5701 3.30238C70.8359 3.0954 70.0011 2.99133 69.0658 2.99133C68.3074 2.99133 67.5937 3.08726 66.9241 3.27854C66.2551 3.46982 65.6702 3.76517 65.1699 4.16459C64.6696 4.56284 64.2704 5.06168 63.9724 5.65994C63.6737 6.25819 63.5244 6.97215 63.5244 7.8018V17.3501H65.9929V7.8018C65.9929 7.40296 66.0776 7.0518 66.2463 6.74889C66.4162 6.4454 66.6378 6.19482 66.9124 5.99482C67.1863 5.7954 67.5085 5.64773 67.88 5.5518C68.251 5.45645 68.6466 5.40819 69.0658 5.40819C69.9852 5.40819 70.7312 5.61633 71.3044 6.03087C71.8764 6.4454 72.1633 7.0361 72.1633 7.8018V17.3501H74.6312V7.8018C74.6312 7.40296 74.7159 7.0518 74.8846 6.74889C75.0527 6.4454 75.2779 6.19482 75.5589 5.99482C75.8405 5.7954 76.1697 5.64773 76.5477 5.5518C76.9251 5.45645 77.3225 5.40819 77.7405 5.40819C78.6247 5.40819 79.3513 5.61633 79.9221 6.03087C80.4918 6.4454 80.7775 7.0361 80.7775 7.8018V14.1309H80.7781V15.589C80.7781 16.6675 81.6617 17.5413 82.7522 17.5413H83.246V11.6902Z" fill="white"/>
<path fill-rule="evenodd" clip-rule="evenodd" d="M28.3119 3.33887C26.4401 3.33887 24.9769 3.74875 23.9205 4.56968C22.8635 5.39003 22.335 6.53538 22.335 8.00456V14.2278V17.5418H22.8288C23.9193 17.5418 24.8035 16.6674 24.8035 15.5889V11.69V8.00456C24.8035 7.28596 25.1215 6.72317 25.7594 6.31677C26.396 5.91038 27.2473 5.70689 28.3119 5.70689H31.5788V3.33887H28.3119Z" fill="white"/>
<path fill-rule="evenodd" clip-rule="evenodd" d="M32.6857 -0.000183105H34.5651C34.7344 -0.000183105 34.8714 0.135282 34.8714 0.302724V1.58761C34.8714 1.75505 34.7344 1.89051 34.5651 1.89051H32.6857C32.5164 1.89051 32.3794 1.75505 32.3794 1.58761V0.302724C32.3794 0.135282 32.5164 -0.000183105 32.6857 -0.000183105Z" fill="#F17D21"/>
<path fill-rule="evenodd" clip-rule="evenodd" d="M35.9289 21.0686H34.6121L33.9196 24.9535H33.5457L34.2382 21.0686H32.9331L32.9989 20.6989H35.9948L35.9289 21.0686Z" fill="white"/>
<path fill-rule="evenodd" clip-rule="evenodd" d="M40.8663 20.699L40.108 24.953H39.7341L40.0968 22.917H37.9022L37.5389 24.953H37.165L37.9234 20.699H38.2973L37.9681 22.5478H40.1632L40.4924 20.699H40.8663Z" fill="white"/>
<path fill-rule="evenodd" clip-rule="evenodd" d="M43.6437 20.6933L42.8841 24.9532H42.5103L43.2698 20.6933H43.6437Z" fill="white"/>
<path fill-rule="evenodd" clip-rule="evenodd" d="M45.293 24.9532L46.0519 20.6992H46.4552L48.0278 24.2899L48.668 20.6992H49.0413L48.2829 24.9532H47.8732L46.3071 21.3619L45.6669 24.9532H45.293Z" fill="white"/>
<path fill-rule="evenodd" clip-rule="evenodd" d="M51.445 20.699H51.8189L51.4685 22.6647L53.9899 20.699H54.5478L51.8195 22.8228L53.8012 24.953H53.2557L51.4127 22.9757L51.0605 24.953H50.686L51.445 20.699Z" fill="white"/>
<path fill-rule="evenodd" clip-rule="evenodd" d="M59.0818 24.5837H60.5927C60.6444 24.5837 60.7126 24.5784 60.7973 24.5691C60.8825 24.5593 60.9689 24.5255 61.0565 24.4691C61.1435 24.4122 61.2264 24.3215 61.304 24.1965C61.3822 24.0709 61.4416 23.8936 61.4827 23.6622C61.528 23.4081 61.4992 23.2203 61.3957 23.0988C61.2922 22.9773 61.1235 22.9174 60.8896 22.9174H59.3787L59.0818 24.5837ZM59.4445 22.5476H60.9619C61.1641 22.5476 61.3281 22.4802 61.4533 22.3447C61.5785 22.2098 61.6609 22.0308 61.7008 21.8081C61.7437 21.5657 61.729 21.3813 61.6561 21.2563C61.5833 21.1313 61.4375 21.0686 61.2199 21.0686H59.7085L59.4445 22.5476ZM58.6421 24.9534L59.4005 20.6988H61.287C61.6074 20.6988 61.8343 20.7976 61.9671 20.9953C62.1 21.193 62.1359 21.4639 62.0741 21.8081C62.0389 22.0075 61.9754 22.1813 61.8837 22.3302C61.7914 22.479 61.6773 22.6046 61.5409 22.7064C61.5897 22.7412 61.6385 22.7837 61.6867 22.8348C61.7349 22.8854 61.7761 22.9494 61.8096 23.0255C61.8437 23.1017 61.866 23.1918 61.8772 23.2953C61.8884 23.3994 61.8813 23.5215 61.8566 23.6622C61.7831 24.0726 61.6367 24.3907 61.4169 24.6157C61.1964 24.8407 60.9007 24.9534 60.5286 24.9534H58.6421Z" fill="white"/>
<path fill-rule="evenodd" clip-rule="evenodd" d="M67.19 21.0686H64.7398L64.4764 22.5477H66.2383L66.1724 22.9175H64.41L64.1131 24.5837H66.5634L66.4975 24.9535H63.6733L64.4323 20.6989H67.2559L67.19 21.0686Z" fill="white"/>
<path fill-rule="evenodd" clip-rule="evenodd" d="M69.7312 24.9532H69.3573L69.7183 22.9288L68.7153 20.6992H69.1486L69.9781 22.5358L71.4978 20.6992H71.931L70.0921 22.9288L69.7312 24.9532Z" fill="white"/>
<path fill-rule="evenodd" clip-rule="evenodd" d="M75.3821 23.9075L75.7689 21.7389C75.7778 21.6883 75.7825 21.622 75.783 21.5423C75.7836 21.4615 75.756 21.383 75.7007 21.3069C75.6449 21.2307 75.5479 21.1639 75.4097 21.1075C75.2716 21.0505 75.0676 21.022 74.7989 21.022C74.5262 21.022 74.3104 21.0505 74.1517 21.1075C73.9935 21.1639 73.8724 21.2313 73.7896 21.3098C73.7061 21.3883 73.6514 21.4685 73.6249 21.5505C73.5979 21.633 73.5809 21.6976 73.5726 21.7447L73.1882 23.9016C73.1793 23.9487 73.174 24.0133 73.1711 24.0952C73.1682 24.1778 73.1946 24.2586 73.2499 24.3365C73.3051 24.415 73.4016 24.483 73.5397 24.5423C73.6773 24.6011 73.883 24.6301 74.1558 24.6301C74.4245 24.6301 74.6384 24.6016 74.7966 24.5452C74.9553 24.4883 75.0758 24.4208 75.1593 24.3423C75.2422 24.2639 75.298 24.1842 75.3268 24.1016C75.3551 24.0191 75.3733 23.9545 75.3821 23.9075ZM76.1399 21.7551L75.7601 23.8854C75.6937 24.2569 75.5179 24.5354 75.234 24.7208C74.9494 24.9075 74.5685 24.9999 74.0894 24.9999C73.6108 24.9999 73.2628 24.9075 73.0447 24.7208C72.8266 24.5354 72.7508 24.2569 72.8172 23.8854L73.197 21.7551C73.2611 21.3958 73.4351 21.1214 73.7202 20.9336C74.0047 20.7464 74.3863 20.6522 74.8648 20.6522C75.3433 20.6522 75.6919 20.7447 75.91 20.9278C76.1287 21.1115 76.2051 21.3877 76.1399 21.7551Z" fill="white"/>
<path fill-rule="evenodd" clip-rule="evenodd" d="M77.6753 24.9532L78.4337 20.6992H78.8369L80.4095 24.2899L81.0503 20.6992H81.4236L80.6652 24.9532H80.2549L78.6894 21.3619L78.0492 24.9532H77.6753Z" fill="white"/>
<path fill-rule="evenodd" clip-rule="evenodd" d="M84.9325 21.0686H83.8379L83.2112 24.5837H84.3059C84.4293 24.5837 84.5545 24.5733 84.6833 24.5541C84.8114 24.5349 84.9302 24.4983 85.0389 24.4459C85.1471 24.393 85.2412 24.3204 85.3211 24.2285C85.4011 24.1366 85.454 24.0163 85.481 23.8675L85.8573 21.7552C85.8796 21.6302 85.8731 21.5233 85.8373 21.4355C85.8014 21.3471 85.7415 21.2756 85.658 21.2215C85.5745 21.1669 85.4716 21.1273 85.3487 21.1041C85.2259 21.0808 85.0871 21.0686 84.9325 21.0686ZM83.5304 20.6989H85.0013C85.4446 20.6989 85.7755 20.7884 85.9954 20.9657C86.2147 21.1442 86.2929 21.407 86.2312 21.7552L85.8543 23.8675C85.7908 24.2239 85.6162 24.4936 85.3305 24.6773C85.0442 24.8611 84.6821 24.9535 84.2429 24.9535H82.7715L83.5304 20.6989Z" fill="white"/>
</g>
</svg>
